<svg xmlns="http://www.w3.org/2000/svg" xml:space="preserve" viewBox="410 524 1258 881"><g id="Layer_1"><g id="XMLID_2123_"><linearGradient id="XMLID_00000147942828048052236340000002872742262165514628_" x1="735.1" x2="1302.1" y1="1398.9" y2="332.4" gradientUnits="userSpaceOnUse"><stop offset="0" stop-color="#c91e78"/><stop offset="0" stop-color="#c32078"/><stop offset=".2" stop-color="#a0277f"/><stop offset=".3" stop-color="#822b85"/><stop offset=".4" stop-color="#682d89"/><stop offset=".6" stop-color="#512f8c"/><stop offset=".7" stop-color="#3f308f"/><stop offset=".9" stop-color="#323091"/><stop offset="1" stop-color="#2e3092"/></linearGradient><path id="XMLID_794_" fill="url(#XMLID_00000147942828048052236340000002872742262165514628_)" d="M1550 581c-35 7-69 17-95 57-3 3-7 3-10 1-7-7-22-18-42-20-23-3-46-3-65-13-4-3-10 2-8 7 8 27 31 76 93 96 14 5 7 51 4 59-10 29-36 49-61 63-90 51-185 38-283 29-13-1-24-9-30-20-25-50-33-113-35-161-1-32-38-47-62-27-61 54-93 114-110 158-5 15-20 25-36 24-88-4-167-1-219 24-92 43-199 144-179 280a81 81 0 0 0 7 24c119 223 424 222 494 219a15 15 0 0 0-1-31c-240-1-349-82-393-148-16-23-6-55 20-66 39-14 88-19 126-6l32 11c41 16 63 28 93 36 20 6 44 9 80 11 15 0 30 1 46 4 95 28 114 160 116 197 0 14 17 21 28 13 64-39 98-104 116-162 9-29 30-52 57-64 59-25 118-52 165-98 50-50 88-117 102-187 7-33 6-66 5-100a226 226 0 0 1 1-41c6-19 20-33 39-39 40-11 108-48 122-180 1-6-7-9-11-5-15 18-45 43-106 55zm-650 436c-5 35-59 55-120 46-61-8-107-44-102-79s59-55 121-46c61 9 106 44 101 79z"/></g></g></svg>